<?xml version="1.0" standalone="no"?><!DOCTYPE svg PUBLIC "-//W3C//DTD SVG 1.1//EN" "http://www.w3.org/Graphics/SVG/1.1/DTD/svg11.dtd"><svg t="1590309741940" class="icon" viewBox="0 0 1024 1024" version="1.1" xmlns="http://www.w3.org/2000/svg" p-id="22533" xmlns:xlink="http://www.w3.org/1999/xlink" width="64" height="64"><defs><style type="text/css"></style></defs><path d="M404.3 660.7c2.2-2.2 3.3-4.7 3.3-7.6v-36H256.9V664h139.4c3.2 0 5.8-1.1 8-3.3zM255.4 409.6h73.2v24h-73.2z m399.9 58.8c1.7-1.8 2.5-3.9 2.5-6.2v-20.1h-13.9v29h5c2.6 0 4.7-0.9 6.4-2.7zM255.4 463h73.2v24h-73.2z" p-id="22534"></path><path d="M512 16C238.1 16 16 238.1 16 512s222.1 496 496 496 496-222.1 496-496S785.9 16 512 16zM409.6 331.7l13.2 41.1H329l-13.6-41.1h94.2z m89.8 325c0 10.3-3.6 19-10.7 26.1-7.1 7.1-15.8 10.7-26.1 10.7H165.1V587.7h334.3v69z m1.6-247.1h-77.1v24h74.4V463h-74.4v24h74.4v29.4h-74.4v21.7H501v29.4H255.4v9.3h-90.2v-115H135L188.5 332H278l-19.4 48H501v29.6z m223.8-76h153.4l0.4 53.8h9.3v22.1h-73.2v-53.8h-25.6v53.8h-64.3v-75.9z m-1.9 88h162.3v35.2l-46.6 38.7 50.1 42.2H813l-12.8-10.5-12.4 10.5H709l51.9-43-36.4-30.6v-11.6H788l11.6 10.1 23.2-19h-99.9v-22z m-200.6-77.1h58.9v-13.9h77.1v13.9h58.9v22.1h-58.9v18.6h54.6v22.1h-186v-22.1h54.2v-18.6h-58.9v-22.1z m255.2 318.8c2.8 0 5.4-1 7.7-3.1s3.5-4.6 3.5-7.7V632h92.2v16.7c0 6.2-1.2 11.9-3.5 17.2-2.3 5.3-5.5 9.9-9.5 13.9s-8.7 7.2-14 9.5c-5.3 2.3-11.1 3.5-17.3 3.5H530V632h91.8v31.4h37.6v-39.9H521.9v-29.4h137.5v-17H618l-2.7 8.9h-91.8l16.7-50h-14.7V418.1h189V459c0 4.9-1 9.6-2.9 14s-4.6 8.2-7.9 11.5c-3.4 3.2-7.2 5.8-11.6 7.8-4.4 1.9-9 2.9-13.9 2.9h-96.1v29.4h53.5l-7.7 22.9h238.9v29.4H751.4v17h137.7v29.4H751.2v39.9h26.3z" p-id="22535"></path><path d="M255.4 516.5h73.2v21.7h-73.2z m326.5-74.4h13.9v29h-13.9z" p-id="22536"></path></svg>