<?xml version="1.0" standalone="no"?><!DOCTYPE svg PUBLIC "-//W3C//DTD SVG 1.1//EN" "http://www.w3.org/Graphics/SVG/1.1/DTD/svg11.dtd"><svg t="1590309829792" class="icon" viewBox="0 0 1024 1024" version="1.1" xmlns="http://www.w3.org/2000/svg" p-id="23882" xmlns:xlink="http://www.w3.org/1999/xlink" width="64" height="64"><defs><style type="text/css"></style></defs><path d="M968.9 351.8l-57.5-52.2c-31-28.1-71.1-43.6-112.9-43.6L640 256l0-80.5c0-62-50.5-112.5-112.5-112.5l-415 0c-62 0-112.5 50.5-112.5 112.5l0 720.5 128 0c0 70.6 57.4 128 128 128s128-57.4 128-128l192 0 64 0c0 70.6 57.4 128 128 128s128-57.4 128-128l128 0L1024 476.2C1024 428.9 1003.9 383.6 968.9 351.8zM925.9 399.2c21.7 19.7 34.1 47.7 34.1 77l0 99.8-128 0L832 325.5c13.3 4.5 25.7 11.8 36.4 21.5L925.9 399.2zM256 960c-35.3 0-64-28.7-64-64s28.7-64 64-64 64 28.7 64 64S291.3 960 256 960zM576 832 366.8 832c-22.2-38.2-63.5-64-110.8-64s-88.7 25.8-110.8 64L64 832l0-656.5c0-26.7 21.8-48.5 48.5-48.5l415 0c26.7 0 48.5 21.8 48.5 48.5l0 80.5L576 832zM768 960c-35.3 0-64-28.7-64-64s28.7-64 64-64 64 28.7 64 64S803.3 960 768 960zM878.8 832c-22.2-38.2-63.5-64-110.8-64s-88.7 25.8-110.8 64L640 832l0-512 128 0 0 320 192 0 0 192L878.8 832z" p-id="23883"></path></svg>