<?xml version="1.0" standalone="no"?><!DOCTYPE svg PUBLIC "-//W3C//DTD SVG 1.1//EN" "http://www.w3.org/Graphics/SVG/1.1/DTD/svg11.dtd"><svg t="1590309710741" class="icon" viewBox="0 0 1024 1024" version="1.1" xmlns="http://www.w3.org/2000/svg" p-id="22348" xmlns:xlink="http://www.w3.org/1999/xlink" width="64" height="64"><defs><style type="text/css"></style></defs><path d="M104.485926 523.282963c-7.300741 0-14.601481-2.74963-20.100741-8.343704-11.093333-11.093333-11.093333-29.108148 0-40.201481L491.045926 68.077037c11.093333-11.093333 29.108148-11.093333 40.201481 0s11.093333 29.108148 0 40.201482L124.586667 514.939259c-5.594074 5.594074-12.894815 8.343704-20.100741 8.343704z" p-id="22349"></path><path d="M917.807407 523.282963c-7.300741 0-14.601481-2.74963-20.10074-8.343704L491.045926 108.278519c-11.093333-11.093333-11.093333-29.108148 0-40.201482s29.108148-11.093333 40.201481 0l406.660741 406.660741c11.093333 11.093333 11.093333 29.108148 0 40.201481-5.499259 5.594074-12.8 8.343704-20.100741 8.343704z" p-id="22350"></path><path d="M798.90963 964.456296h-575.525926c-36.882963 0-66.844444-29.961481-66.844445-66.844444V429.605926c0-15.739259 12.705185-28.444444 28.444445-28.444445s28.444444 12.705185 28.444444 28.444445v468.100741c0 5.499259 4.456296 9.955556 9.955556 9.955555h575.525926c5.499259 0 9.955556-4.456296 9.955555-9.955555V429.605926c0-15.739259 12.705185-28.444444 28.444445-28.444445s28.444444 12.705185 28.444444 28.444445v468.100741c-0.094815 36.788148-30.056296 66.74963-66.844444 66.749629z" p-id="22351"></path><path d="M415.194074 636.965926H307.768889c-15.739259 0-28.444444-12.705185-28.444445-28.444445V501.096296c0-15.739259 12.705185-28.444444 28.444445-28.444444h107.425185c15.739259 0 28.444444 12.705185 28.444445 28.444444v107.425185c0 15.739259-12.705185 28.444444-28.444445 28.444445z m-78.980741-56.888889h50.536297v-50.536296h-50.536297v50.536296zM415.194074 848.592593H307.768889c-15.739259 0-28.444444-12.705185-28.444445-28.444445V712.722963c0-15.739259 12.705185-28.444444 28.444445-28.444444h107.425185c15.739259 0 28.444444 12.705185 28.444445 28.444444V820.148148c0 15.644444-12.705185 28.444444-28.444445 28.444445z m-78.980741-56.888889h50.536297v-50.536297h-50.536297V791.703704zM629.380741 848.592593H521.955556c-15.739259 0-28.444444-12.705185-28.444445-28.444445V712.722963c0-15.739259 12.705185-28.444444 28.444445-28.444444h107.425185c15.739259 0 28.444444 12.705185 28.444444 28.444444V820.148148c0 15.644444-12.8 28.444444-28.444444 28.444445z m-78.980741-56.888889h50.536296v-50.536297h-50.536296V791.703704zM751.407407 475.875556H537.031111c-15.739259 0-28.444444-12.705185-28.444444-28.444445s12.705185-28.444444 28.444444-28.444444h214.471111c15.739259 0 28.444444 12.705185 28.444445 28.444444s-12.8 28.444444-28.53926 28.444445zM751.407407 564.622222h-147.911111c-15.739259 0-28.444444-12.705185-28.444444-28.444444s12.705185-28.444444 28.444444-28.444445h147.911111c15.739259 0 28.444444 12.705185 28.444445 28.444445s-12.705185 28.444444-28.444445 28.444444zM751.407407 645.878519H655.265185c-15.739259 0-28.444444-12.705185-28.444444-28.444445s12.705185-28.444444 28.444444-28.444444h96.142222c15.739259 0 28.444444 12.705185 28.444445 28.444444s-12.705185 28.444444-28.444445 28.444445z" p-id="22352"></path></svg>