<?xml version="1.0" standalone="no"?><!DOCTYPE svg PUBLIC "-//W3C//DTD SVG 1.1//EN" "http://www.w3.org/Graphics/SVG/1.1/DTD/svg11.dtd"><svg t="1590309470565" class="icon" viewBox="0 0 1024 1024" version="1.1" xmlns="http://www.w3.org/2000/svg" p-id="14593" xmlns:xlink="http://www.w3.org/1999/xlink" width="64" height="64"><defs><style type="text/css"></style></defs><path d="M823.424 694.08H231.296a23.168 23.168 0 0 1 0-46.272h592.128c22.144 0 39.744-12.416 44.928-31.552l101.696-378.496a39.552 39.552 0 0 0-6.336-35.136 47.744 47.744 0 0 0-38.656-17.472H161.92a23.168 23.168 0 0 1 0-46.272h763.2c30.592 0 57.92 12.992 75.328 35.584 16.256 21.12 21.44 48.512 14.4 75.328l-101.824 378.496c-10.432 39.296-46.464 65.792-89.6 65.792z" fill="#4D4D4D" p-id="14594"></path><path d="M879.104 832.832H292.352c-47.296 0-85.952-32.704-91.776-77.76L112.192 80.832c-3.328-25.536-26.88-34.624-45.952-34.624H23.168a23.04 23.04 0 1 1 0-46.208h43.072c48.384 0 86.08 30.784 91.776 74.88L246.4 749.12c2.816 22.016 21.76 37.376 45.888 37.376h586.752a23.168 23.168 0 0 1 0.064 46.336zM393.344 948.544H300.736a23.104 23.104 0 0 1 0-46.272h92.608a23.04 23.04 0 1 1 0 46.272zM809.728 948.544h-92.608a23.104 23.104 0 0 1 0-46.272h92.608a23.04 23.04 0 1 1 0 46.272z" fill="#4D4D4D" p-id="14595"></path></svg>